<?xml version="1.0" encoding="utf-8"?>
<!-- Generator: Adobe Illustrator 24.0.0, SVG Export Plug-In . SVG Version: 6.00 Build 0)  -->
<svg version="1.1" id="Layer_1" xmlns="http://www.w3.org/2000/svg" xmlns:xlink="http://www.w3.org/1999/xlink" x="0px" y="0px"
	 viewBox="0 0 1504.77 190.88" style="enable-background:new 0 0 1504.77 190.88;" xml:space="preserve">
<style type="text/css">
	.st0{fill:#1B1946;}
	.st1{fill:#FFFFFF;}
	.st2{fill:#02EEB3;}
	.st3{fill:#02EDB3;}
</style>
<g>
	<path class="st0" d="M299.93,0.11c-9.01,51.03-18.02,102.06-27.03,153.1c-1.82,10.3-3.69,20.6-5.46,30.91
		c-0.38,2.22-1.34,4.44-0.5,6.76c-87.32,0-174.64-0.04-261.96,0.12c-4.25,0.01-5.86-0.92-4.98-5.11c1.94-1.72,1.56-4.2,1.94-6.36
		C10.85,129.37,19.76,79.2,28.5,29c1.67-9.6,4.16-19.08,4.5-28.89c23.99,0,47.99,0,71.98,0c-0.04,0.99,0.03,2-0.14,2.97
		c-5.14,29.08-10.22,58.18-15.57,87.22c-0.8,4.32,0.12,5.38,4.45,5.3c13.3-0.25,26.62-0.38,39.92,0.05
		c5.12,0.16,6.61-1.58,7.38-6.34c3.27-20.14,7.09-40.19,10.45-60.32c1.6-9.61,4.17-19.07,4.5-28.88
		C203.95,0.11,251.94,0.11,299.93,0.11z M224.46,24.03c-14.65,0-29.31,0.13-43.96-0.1c-3.42-0.05-4.65,1.07-5.06,4.26
		c-0.67,5.1-1.35,10.24-2.65,15.2c-1.07,4.06,0.21,4.66,3.94,4.63c20.65-0.16,41.3,0.01,61.95-0.15c3.72-0.03,4.99,0.73,4.26,4.69
		c-3.82,20.91-7.46,41.85-11.11,62.79c-0.46,2.62-1.36,3.96-4.47,3.92c-13.32-0.19-26.64-0.19-39.96-0.01
		c-3.45,0.05-3.9-1.31-3.34-4.17c1.05-5.38,1.94-10.78,2.91-16.18c0.36-2.02,0.39-3.63-2.45-3.59c-6.16,0.09-12.32,0.04-18.48,0.02
		c-1.84-0.01-2.63,0.91-2.93,2.66c-2.35,13.75-4.64,27.51-7.21,41.22c-0.72,3.87,1.1,4,3.98,3.99c28.98-0.05,57.95-0.09,86.93,0.05
		c3.22,0.02,4.3-1.18,4.81-4.07c6.48-37.3,12.97-74.6,19.66-111.87c0.66-3.67-1.06-3.31-3.34-3.31
		C253.44,24.04,238.95,24.03,224.46,24.03z M80.33,143.18c14.49,0,28.97-0.1,43.46,0.08c3.17,0.04,4.42-1.07,4.84-4.03
		c0.75-5.26,1.4-10.57,2.73-15.7c1.04-3.99-0.45-4.41-3.82-4.39c-20.65,0.1-41.29-0.04-61.94,0.13c-3.95,0.03-5.17-0.81-4.41-4.99
		c5.27-28.74,10.29-57.52,15.48-86.28c0.54-3,0.05-4.23-3.32-4.05c-4.81,0.26-9.7,0.49-14.47-0.05c-4.89-0.55-6.16,1.64-6.8,5.89
		c-1.61,10.67-3.57,21.28-5.45,31.91c-4.48,25.34-8.92,50.69-13.57,76c-0.81,4.42,0.18,5.68,4.81,5.59
		C52.02,142.99,66.18,143.18,80.33,143.18z"/>
	<path class="st1" d="M1504.66,45.06c-3.03,5.47-2.9,11.69-3.87,17.6c-0.66,3.97-2.08,5.19-6.03,4.98
		c-6.31-0.34-12.65,0.01-18.98-0.14c-2.63-0.06-3.72,0.7-4.2,3.49c-4.24,24.88-8.71,49.73-12.97,74.61
		c-0.57,3.34-1.65,4.71-5.35,4.48c-6.3-0.4-12.66-0.32-18.97-0.03c-3.47,0.16-4.14-0.93-3.56-4.14
		c3.54-19.44,6.95-38.91,10.39-58.37c0.98-5.56,1.74-11.17,3-16.67c0.68-2.93-0.25-3.41-2.84-3.36c-6.49,0.12-13-0.14-19.48,0.11
		c-3.48,0.13-4.79-0.66-3.99-4.38c1.41-6.49,2.71-13.02,3.56-19.6c0.4-3.06,1.51-3.68,4.36-3.67c26.31,0.12,52.62,0.09,78.94,0.1
		C1504.66,41.73,1504.66,43.39,1504.66,45.06z"/>
	<path class="st1" d="M1051.69,40.03c-3.25,18.53-6.41,36.5-9.6,54.63c0.93,0.13,1.56,0.28,2.19,0.3
		c11.1,0.36,11.28,0.39,13.15-10.28c0.54-3.09,1.72-3.6,4.48-3.61c10.23-0.02,10.22-0.12,8.26,10.04c-0.22,1.13-0.31,2.29-0.46,3.49
		c0.6,0.14,1.07,0.33,1.55,0.35c11.64,0.52,11.69,0.53,13.75-10.8c2.4-13.24,4.79-26.48,6.97-39.75c0.55-3.32,1.58-4.67,5.29-4.48
		c7.46,0.38,14.96,0.11,23.09,0.11c-1.66,9.71-3.21,19.1-4.87,28.48c-4.56,25.84-9.22,51.66-13.66,77.52
		c-0.53,3.09-1.52,4.15-4.71,4.02c-6.65-0.26-13.32-0.2-19.98-0.02c-2.79,0.07-3.92-0.47-3.18-3.55c0.77-3.2,2.51-7.49,1.15-9.51
		c-1.54-2.3-6.16-0.72-9.42-0.71c-2.64,0.01-3.72-0.68-2.95-3.36c0.09-0.32,0.08-0.66,0.12-0.99c0.36-3.01,2.74-7.38,0.56-8.68
		c-2.73-1.63-7.07-0.51-10.71-0.65c-2.36-0.09-2.01,1.78-2.32,3.1c-0.78,3.36-0.43,7.78-2.48,9.82c-2.17,2.15-6.66,0.75-10.11,0.6
		c-2.78-0.12-3.34,1.32-3.73,3.44c-0.62,3.38,0.15,8.18-2.34,9.75c-2.65,1.67-7.06,0.63-10.7,0.67c-4.33,0.06-8.66-0.1-12.99,0.06
		c-2.54,0.09-3.36-0.32-2.83-3.25c6.21-34.32,12.3-68.66,18.25-103.02c0.5-2.87,1.26-3.87,4.27-3.78
		C1035.53,40.18,1043.35,40.03,1051.69,40.03z"/>
	<path class="st1" d="M900.91,40.54c-0.58,3.2-1,6.5-1.81,9.7c-0.77,3.02,0.27,3.61,3.14,3.65c10.1,0.13,10.1,0.23,8.36,10.05
		c-1.62,9.16-3.37,18.29-4.8,27.48c-0.46,2.97-1.65,3.67-4.53,3.67c-11.02-0.01-11.42,0.58-12.13,11.61
		c-0.13,2.08,0.74,2.14,2.21,2.13c3-0.02,5.99,0.03,8.99-0.01c1.72-0.02,2.21,0.47,1.86,2.35c-2.24,12.25-4.37,24.52-6.43,36.81
		c-0.31,1.82-1.31,2.02-2.76,2.01c-8.3-0.02-16.61-0.01-25.2-0.01c1.41-8.22,2.6-16.07,4.17-23.84c0.63-3.1-0.37-3.58-3.15-3.62
		c-3.22-0.05-7.62,1.67-9.32-0.87c-1.27-1.91,0.56-5.97,1.19-9.04c0.52-2.57,0.26-3.77-2.97-3.8c-10.28-0.11-10.21-0.25-11.89,9.75
		c-1.59,9.5-3.38,18.96-4.95,28.47c-0.31,1.86-0.6,3.04-2.9,3.02c-8.3-0.1-16.61-0.04-25.2-0.04c3.86-21.97,7.63-43.54,11.44-65.09
		c2.46-13.9,5.02-27.78,7.4-41.69c0.36-2.08,0.68-3.22,3.21-3.21c21.65,0.11,43.29,0.07,64.94,0.1
		C900.08,40.08,900.39,40.32,900.91,40.54z M865.97,81.15c3.81,0,7.63-0.09,11.43,0.04c1.87,0.07,2.9-0.63,2.95-2.41
		c0.12-3.69,2.47-7.2,0.92-10.98c-0.12-0.3-1.23-0.28-1.88-0.28c-7.29-0.02-14.58,0.07-21.87-0.06c-2.17-0.04-2.66,0.89-3.14,2.77
		c-2.83,10.95-2.89,10.93,8.1,10.93C863.65,81.15,864.81,81.15,865.97,81.15z"/>
	<path class="st1" d="M383.77,95.27c-13.73-0.94-13.66-0.93-15.79,11.68c-2.25,13.26-4.74,26.48-6.92,39.75
		c-0.4,2.47-1.09,3.38-3.67,3.32c-7.16-0.16-14.32-0.14-21.48-0.01c-2.43,0.05-3.06-0.44-2.59-3.04
		c6.22-34.48,12.31-68.99,18.41-103.49c0.32-1.8,0.1-3.55,2.92-3.5c8.3,0.16,16.61,0.06,25.1,0.06c-0.12,1.02-0.19,1.66-0.27,2.29
		c-0.47,3.6-2.98,7.88-1.19,10.56c1.72,2.58,6.46,0.84,9.85,0.86c2.72,0.02,3.12,1.09,2.52,3.29c-0.04,0.16-0.08,0.32-0.11,0.49
		c-1.89,11.02-1.89,10.96,9.36,9.96c2.1-0.19,2.75-0.94,3.07-2.94c1.15-7.21,2.61-14.38,3.77-21.59c0.31-1.9,0.67-2.98,2.94-2.94
		c8.3,0.11,16.6,0.04,25.15,0.04c-5.52,31.32-10.96,62.2-16.41,93.09c-0.81,4.58-1.8,9.13-2.41,13.74c-0.29,2.19-0.85,3.21-3.3,3.16
		c-7.32-0.14-14.65-0.15-21.98,0c-2.7,0.06-2.82-0.85-2.38-3.19c2.17-11.42,4.04-22.89,6.22-34.31c0.53-2.81,0.12-3.69-2.97-3.73
		c-10.21-0.1-10.21-0.24-8.47-10.36C383.32,97.46,383.53,96.49,383.77,95.27z"/>
	<path class="st1" d="M963.74,149.96c2.26-12.7,4.34-24.97,6.67-37.2c0.58-3.01,0.25-4.11-3.17-3.97
		c-6.65,0.27-13.33,0.33-19.97-0.02c-3.56-0.19-4.05,1.52-4.51,4.29c-1.88,11.3-4.02,22.55-5.87,33.86
		c-0.37,2.23-0.99,3.14-3.36,3.09c-7.32-0.13-14.65-0.15-21.97,0.01c-2.82,0.06-2.7-1.04-2.31-3.25
		c5.3-29.75,10.52-59.51,15.69-89.28c0.47-2.74,1.46-3.79,4.48-3.77c9.76,0.06,9.87-0.09,11.64-9.66c0.57-3.1,1.67-4.19,5.06-4.14
		c15.48,0.24,30.96,0.18,46.44,0.04c3.31-0.03,4.7,0.24,3.78,4.25c-2.16,9.41-1.91,9.7,7.67,9.49c4.1-0.09,4.15,1.51,3.58,4.65
		c-5.3,29.41-10.51,58.84-15.73,88.26c-0.28,1.57,0.08,3.4-2.52,3.38C980.89,149.92,972.43,149.96,963.74,149.96z M962.03,81.15
		c3.65,0,7.29-0.09,10.94,0.04c1.93,0.07,3.15-0.34,3.44-2.48c0.38-2.78,0.86-5.55,1.42-8.31c0.44-2.16-0.27-2.96-2.52-2.93
		c-7.29,0.1-14.58,0.02-21.87,0.05c-1.08,0-2.45-0.35-2.73,1.33c-0.65,3.91-2.42,8.12-1.47,11.6c0.52,1.92,5.74,0.42,8.83,0.68
		C959.37,81.24,960.7,81.15,962.03,81.15z"/>
	<path class="st1" d="M1332.47,81.15c-4.79,0-8.92,0-13.63,0c2.34-13.33,4.64-26.32,6.86-39.32c0.27-1.57,1.13-1.8,2.39-1.8
		c8.46,0.01,16.91,0,25.51,0c-1.43,8.34-2.71,16.21-4.18,24.04c-0.4,2.15-0.57,3.42,2.29,3.37c7.33-0.13,14.66-0.09,21.99-0.01
		c2.14,0.02,2.76-0.9,3.08-2.91c1.15-7.22,2.61-14.39,3.77-21.6c0.31-1.92,0.7-2.96,2.95-2.93c8.3,0.11,16.61,0.04,25.18,0.04
		c-2.31,12.86-4.63,25.26-6.68,37.7c-0.44,2.64-1.24,3.5-3.99,3.53c-10.66,0.15-10.64,0.26-12.32,10.82
		c-0.73,4.59-1.35,9.22-2.43,13.74c-0.65,2.72,0.28,3.11,2.6,3.02c3.46-0.13,6.93-0.03,10.64-0.03c-2.32,13.13-4.57,25.71-6.75,38.3
		c-0.27,1.56-0.33,2.9-2.49,2.88c-8.46-0.07-16.92-0.03-25.56-0.03c1.43-8.32,2.66-16.19,4.19-24.01c0.53-2.73-0.15-3.47-2.85-3.41
		c-6.99,0.14-14,0.11-20.99,0.01c-2.21-0.03-3.16,0.56-3.52,2.96c-1.08,7.23-2.55,14.4-3.77,21.6c-0.27,1.57-0.33,2.9-2.5,2.88
		c-8.46-0.07-16.91-0.03-25.6-0.03c2.26-12.74,4.55-24.99,6.53-37.28c0.5-3.08,1.58-3.98,4.69-3.95c9.77,0.1,9.82-0.04,11.52-9.39
		C1330.46,93.47,1331.39,87.57,1332.47,81.15z"/>
	<path class="st1" d="M716.82,149.97c3.5-20,6.91-39.61,10.37-59.2c2.8-15.87,5.76-31.71,8.42-47.6c0.43-2.59,1.32-3.2,3.74-3.19
		c16.16,0.08,32.31,0.14,48.47-0.04c3.38-0.04,3.36,1.38,2.89,3.83c-0.61,3.21-2.87,7.55-1.04,9.37c1.71,1.71,6.29,0.73,9.6,0.61
		c2.73-0.09,3.25,0.69,2.77,3.4c-0.57,3.2-2.88,7.24-0.92,9.5c1.94,2.23,6.29,0.71,9.56,0.67c2.88-0.03,3.2,0.89,2.71,3.52
		c-2.96,16.01-5.83,32.03-8.48,48.09c-0.5,3.06-1.74,3.68-4.54,3.7c-9.89,0.06-9.99,0.14-11.57,9.85c-0.47,2.89-1.56,3.76-4.51,3.76
		c-9.88,0-9.83,0.14-11.71,9.71c-0.33,1.68,0.17,4.07-3.07,4.05C752.06,149.91,734.59,149.97,716.82,149.97z M765.3,67.53
		c-2.8,0.3-6.49-1.53-7.32,4.15c-2.03,13.96-4.79,27.82-7.14,41.74c-1.54,9.1-1.44,8.85,7.64,9.18c3.83,0.14,4.81-1.36,5.31-4.61
		c1.41-9.14,1.5-9.13,10.63-9.17c0.33,0,0.68-0.05,1,0.01c3.03,0.55,4-0.98,4.42-3.77c1.04-6.9,2.21-13.78,3.64-20.61
		c0.6-2.89-0.3-3.36-2.91-3.34c-3.29,0.02-7.91,1.54-9.5-0.67c-1.41-1.96,0.25-6.31,0.95-9.52c0.59-2.74-0.22-3.67-2.9-3.41
		C767.94,67.62,766.77,67.53,765.3,67.53z"/>
	<path class="st1" d="M1312.63,40.03c-1.42,8.24-2.83,15.91-4.02,23.62c-0.46,2.99-1.64,4.02-4.82,3.98
		c-15.65-0.19-31.31,0.01-46.97-0.17c-3.16-0.04-4.25,1-4.82,3.96c-1.87,9.72-1.98,9.7,7.79,9.7c5,0,10,0.11,14.99-0.05
		c2.48-0.08,3.19,0.63,2.71,3.11c-1.39,7.17-2.69,14.37-3.81,21.59c-0.4,2.56-1.56,3.19-3.98,3.15c-6.99-0.14-13.99,0.09-20.98-0.12
		c-2.62-0.08-3.42,0.95-3.88,3.27c-2.08,10.39-2.13,10.38,8.21,10.38c13.49,0,26.99,0.19,40.47-0.11c4.3-0.1,4.59,1.39,3.85,4.88
		c-1.37,6.5-2.61,13.04-3.5,19.62c-0.36,2.66-1.41,3.18-3.79,3.18c-20.82-0.07-41.64-0.11-62.46,0.04
		c-3.14,0.02-3.12-1.24-2.69-3.54c0.61-3.24,2.49-7.48,1.14-9.53c-1.52-2.32-6.15-0.82-9.39-0.7c-3.28,0.12-3.41-1.28-2.96-3.83
		c4.47-25.19,8.9-50.38,13.28-75.58c0.42-2.42,1.52-3.17,3.99-3.14c3.44,0.04,7.85,1.57,10.08-0.77c1.93-2.02,1.48-6.27,2.18-9.51
		c0.35-1.62,0.02-3.52,2.96-3.5C1268.18,40.09,1290.15,40.03,1312.63,40.03z"/>
	<path class="st1" d="M475.85,40.03c-4.57,25.78-9.03,51.12-13.56,76.44c-1.07,5.99-1.15,5.97,4.9,5.98c5.66,0,11.34-0.27,16.98,0.1
		c3.62,0.24,4.84-1.02,5.42-4.45c3.66-21.61,7.52-43.19,11.32-64.78c0.55-3.11,1.44-6.19,1.64-9.31c0.2-3.15,1.34-4.16,4.54-4.06
		c7.8,0.24,15.61,0.08,23.74,0.08c-4.19,23.75-8.31,47.09-12.41,70.44c-1.27,7.2-2.62,14.38-3.7,21.61
		c-0.48,3.19-1.71,4.29-5.1,4.21c-9.28-0.21-9.49-0.06-11,9.19c-0.6,3.7-2.04,4.64-5.68,4.59c-15.32-0.22-30.64-0.19-45.96-0.02
		c-3.47,0.04-4.61-0.52-3.77-4.33c2.07-9.35,1.88-9.54-7.67-9.45c-3.3,0.03-4.27-0.7-3.66-4.12c5.38-29.74,10.64-59.51,15.88-89.27
		c0.27-1.54,0.26-2.89,2.45-2.87C458.7,40.08,467.17,40.03,475.85,40.03z"/>
	<path class="st1" d="M585.49,40.03c12.49,0,24.98,0.06,37.47-0.04c2.81-0.02,4.15,0.05,3.28,3.68c-1.54,6.45-2.5,13.05-3.41,19.62
		c-0.44,3.19-1.55,4.51-5.02,4.35c-6.48-0.31-12.99,0.01-19.48-0.13c-2.73-0.06-4.07,0.49-4.59,3.63
		c-2.59,15.9-5.36,31.77-8.39,47.59c-0.68,3.57,0.51,3.84,3.41,3.78c6.66-0.15,13.32,0.06,19.98-0.1c2.71-0.07,3.54,0.74,3.02,3.42
		c-1.38,7.17-2.73,14.36-3.83,21.58c-0.34,2.26-1.36,2.6-3.28,2.6c-25.64-0.04-51.29-0.06-76.93,0.03c-2.66,0.01-2.9-0.81-2.42-3.18
		c1.37-6.84,2.55-13.72,3.6-20.61c0.42-2.73,1.33-3.99,4.42-3.87c6.65,0.26,13.32-0.03,19.98,0.13c2.77,0.06,4.1-0.58,4.6-3.65
		c2.57-15.73,5.21-31.46,8.27-47.1c0.8-4.09-0.53-4.35-3.82-4.25c-6.32,0.19-12.66-0.12-18.98,0.13c-3.29,0.13-4.05-0.94-3.43-3.99
		c1.35-6.67,2.77-13.35,3.61-20.1c0.4-3.22,1.75-3.58,4.45-3.56C560.51,40.09,573,40.03,585.49,40.03z"/>
	<path class="st1" d="M1216.65,40.03c-1.42,8.27-2.84,15.94-4.02,23.65c-0.46,3.02-1.69,4.08-4.84,3.95
		c-6.65-0.27-13.32,0.02-19.98-0.13c-2.67-0.06-3.69,0.78-4.16,3.53c-4.24,24.88-8.72,49.72-12.97,74.6
		c-0.58,3.38-1.73,4.66-5.38,4.44c-6.3-0.38-12.66-0.32-18.97-0.02c-3.53,0.17-4.1-1.02-3.53-4.16
		c3.53-19.44,6.94-38.91,10.39-58.37c0.98-5.56,1.73-11.17,3-16.67c0.68-2.95-0.28-3.39-2.85-3.35c-6.66,0.11-13.33-0.11-19.98,0.1
		c-3.09,0.1-4.22-0.63-3.55-3.88c1.42-7,2.73-14.02,3.8-21.08c0.33-2.2,1.2-2.66,3.18-2.65
		C1163.25,40.04,1189.71,40.03,1216.65,40.03z"/>
	<path class="st1" d="M705.75,135.78c-1.45,8.45-2.83,16.43-4.16,24.41c-0.35,2.1-1.21,3.01-3.58,3.01
		c-25.44-0.09-50.87-0.09-76.31-0.01c-2.41,0.01-3.31-0.53-2.82-3.07c1.4-7.33,2.8-14.66,3.9-22.04c0.5-3.33,2.78-2.26,4.49-2.26
		c22.94-0.06,45.88-0.04,68.83-0.04C699.22,135.78,702.35,135.78,705.75,135.78z"/>
	<path class="st2" d="M224.46,24.03c14.49,0,28.98,0.01,43.46-0.01c2.29,0,4-0.36,3.34,3.31c-6.69,37.26-13.18,74.57-19.66,111.87
		c-0.5,2.89-1.58,4.09-4.81,4.07c-28.98-0.14-57.95-0.1-86.93-0.05c-2.88,0.01-4.71-0.12-3.98-3.99
		c2.57-13.71,4.86-27.47,7.21-41.22c0.3-1.76,1.09-2.67,2.93-2.66c6.16,0.02,12.32,0.07,18.48-0.02c2.84-0.04,2.81,1.58,2.45,3.59
		c-0.97,5.39-1.86,10.8-2.91,16.18c-0.56,2.86-0.1,4.22,3.34,4.17c13.32-0.18,26.65-0.18,39.96,0.01c3.12,0.04,4.02-1.3,4.47-3.92
		c3.65-20.94,7.28-41.88,11.11-62.79c0.72-3.96-0.54-4.72-4.26-4.69c-20.65,0.16-41.3,0-61.95,0.15c-3.73,0.03-5.01-0.58-3.94-4.63
		c1.3-4.96,1.99-10.1,2.65-15.2c0.42-3.2,1.64-4.32,5.06-4.26C195.15,24.15,209.81,24.03,224.46,24.03z"/>
	<path class="st3" d="M80.33,143.18c-14.15,0-28.31-0.19-42.46,0.11c-4.62,0.1-5.62-1.17-4.81-5.59c4.65-25.31,9.09-50.66,13.57-76
		c1.88-10.63,3.84-21.24,5.45-31.91c0.64-4.25,1.91-6.44,6.8-5.89c4.77,0.54,9.65,0.31,14.47,0.05c3.37-0.18,3.86,1.05,3.32,4.05
		c-5.19,28.75-10.21,57.54-15.48,86.28c-0.77,4.18,0.45,5.02,4.41,4.99c20.64-0.17,41.29-0.03,61.94-0.13
		c3.37-0.02,4.86,0.4,3.82,4.39c-1.33,5.12-1.97,10.44-2.73,15.7c-0.42,2.96-1.67,4.07-4.84,4.03
		C109.3,143.08,94.82,143.18,80.33,143.18z"/>
</g>
</svg>
